<svg width="44" height="46" viewBox="0 0 44 46" fill="none" xmlns="http://www.w3.org/2000/svg">
<path fill-rule="evenodd" clip-rule="evenodd" d="M33.5539 20.1086C33.5539 22.0401 33.1819 23.9526 32.4592 25.7371C31.7365 27.5215 30.6772 29.1429 29.3418 30.5086C28.0064 31.8744 26.421 32.9578 24.6762 33.6969C22.9314 34.4361 21.0614 34.8165 19.1728 34.8165C17.2843 34.8165 15.4142 34.4361 13.6695 33.6969C11.9247 32.9578 10.3393 31.8744 9.00391 30.5086C7.6685 29.1429 6.6092 27.5215 5.88649 25.7371C5.16377 23.9526 4.79179 22.0401 4.79179 20.1086C4.79179 16.2078 6.30694 12.4668 9.00391 9.70854C11.7009 6.95028 15.3588 5.4007 19.1728 5.4007C22.9869 5.4007 26.6448 6.95028 29.3418 9.70854C32.0388 12.4668 33.5539 16.2078 33.5539 20.1086ZM30.9333 35.6009C27.0804 38.6601 22.2324 40.1025 17.3762 39.6346C12.52 39.1667 8.02064 36.8236 4.79419 33.0823C1.56774 29.3409 -0.1433 24.4827 0.00940831 19.4966C0.162116 14.5104 2.16709 9.77126 5.61616 6.2438C9.06523 2.71634 13.6991 0.665801 18.5744 0.509622C23.4498 0.353444 28.2 2.10337 31.8582 5.40315C35.5164 8.70293 37.8074 13.3045 38.2649 18.2711C38.7225 23.2377 37.3121 28.1959 34.3209 32.1364L43.2371 41.2553C43.4726 41.4797 43.6615 41.7503 43.7925 42.051C43.9235 42.3517 43.9939 42.6763 43.9996 43.0054C44.0053 43.3346 43.9461 43.6615 43.8256 43.9667C43.705 44.272 43.5256 44.5493 43.298 44.782C43.0704 45.0148 42.7993 45.1983 42.5008 45.3216C42.2024 45.4449 41.8827 45.5054 41.5609 45.4996C41.239 45.4938 40.9217 45.4218 40.6277 45.2878C40.3336 45.1538 40.069 44.9606 39.8496 44.7198L30.9333 35.6009Z" fill="#9B9B9B"/>
</svg>
