<svg width="56" height="50" viewBox="0 0 56 50" fill="none" xmlns="http://www.w3.org/2000/svg">
<path d="M12.624 49.6435H43.399C46.727 49.6435 48.672 47.7675 48.672 44.4635V23.0645L51.695 25.8305C52.188 26.2995 52.727 26.6275 53.383 26.6275C54.484 26.6275 55.375 25.9475 55.375 24.8225C55.375 24.1195 55.117 23.6745 54.672 23.2755L46.539 15.8455V2.0425C46.539 1.0115 45.883 0.355499 44.852 0.355499H41.782C40.774 0.355499 40.07 1.0115 40.07 2.0425V9.9645L30.813 1.5265C29.993 0.776499 29.008 0.355499 28 0.355499C26.992 0.355499 26.008 0.776499 25.188 1.5265L1.328 23.2765C0.906 23.6755 0.625 24.1205 0.625 24.8235C0.625 25.9485 1.515 26.6285 2.617 26.6285C3.297 26.6285 3.836 26.3005 4.305 25.8315L7.328 23.0895V44.4645C7.328 47.7685 9.274 49.6445 12.625 49.6445M34.749 30.3075C34.749 29.2295 34.046 28.5495 32.968 28.5495H23.029C21.951 28.5495 21.225 29.2295 21.225 30.3075V45.8685H13.42C11.92 45.8685 11.1 45.0485 11.1 43.5245V19.6435L27.179 4.9945C27.413 4.7605 27.694 4.6195 27.999 4.6195C28.304 4.6195 28.585 4.7365 28.843 4.9945L44.897 19.6435V43.5255C44.897 45.0495 44.077 45.8695 42.601 45.8695H34.749V30.3075Z" fill="#9B9B9B"/>
</svg>
