<svg width="549" height="234" viewBox="0 0 549 234" fill="none" xmlns="http://www.w3.org/2000/svg">
<g filter="url(#filter0_d_4_18)">
<g clip-path="url(#clip0_4_18)">
<rect x="4" width="541" height="226" rx="20" fill="#F9A455"/>
<g clip-path="url(#clip1_4_18)">
<path opacity="0.22" d="M426.503 198C472.068 198 509.006 194.099 509.006 189.288C509.006 184.476 472.068 180.576 426.503 180.576C380.938 180.576 344 184.476 344 189.288C344 194.099 380.938 198 426.503 198Z" fill="#FFB1A8"/>
<path d="M503.719 121.364L500.179 97.6694C496.883 86.1443 496.827 80.8497 485.084 79.8797C484.052 79.7428 482.929 79.6686 481.703 79.6686C480.574 79.6686 459.461 79.7827 459.052 79.8284C449.284 80.3761 442.778 84.233 440.423 93.2134L438.103 87.5251C428.823 92.118 423.338 102.011 424.336 112.367L425.726 126.853L449.693 124.588L449.761 124.371L447.832 160.903C447.804 161.439 448.229 161.89 448.762 161.89H492.742C494.342 161.89 497.989 159.865 497.859 158.261L495.448 133.859C495.448 133.859 505.443 130.744 503.707 121.376L503.719 121.364Z" fill="#2B4047"/>
<path d="M456.568 80.0509L458.162 92.7057C458.491 95.3016 460.873 97.1103 463.443 96.7223C468.435 95.9578 472.871 93.1107 475.656 88.8773L481.709 79.6744C481.709 79.6744 456.965 78.6816 456.568 80.0566V80.0509Z" fill="#F7EEE6"/>
<path d="M481.964 102.821L482.254 121.301L451.967 133.1L478.759 120.109L481.964 102.821Z" fill="#213338"/>
<path d="M397.17 139.154L398.355 149.601L398.429 150.251L398.525 150.861C398.599 151.261 398.633 151.666 398.741 152.054L399.03 153.223L399.405 154.353C399.955 155.831 400.687 157.2 401.589 158.376C402.485 159.545 403.546 160.515 404.669 161.16C405.792 161.81 406.955 162.113 408.01 162.095H408.209L408.407 162.073L408.793 162.027L409.984 161.896L412.582 161.599L417.773 161V170.831L412.582 170.231L409.984 169.935L409.337 169.861L408.583 169.769L407.675 169.632L407.227 169.558L406.785 169.438C404.425 168.834 402.377 167.573 400.8 166.055C399.217 164.526 398.06 162.746 397.238 160.903C396.415 159.054 395.916 157.137 395.672 155.226L395.542 153.794C395.525 153.315 395.525 152.841 395.519 152.368C395.502 151.894 395.564 151.426 395.587 150.958L395.638 150.262L395.712 149.612L396.897 139.165H397.17V139.154Z" fill="#4E180C"/>
<path d="M464.498 107.637L457.419 98.2856L458.99 111.665" fill="#3A1D18"/>
<path d="M441.263 92.4774L428.103 94.8053C423.502 95.6212 419.991 99.4039 419.509 104.077L418.312 115.579C417.92 119.327 421.942 121.923 425.164 120.001L428.919 117.764L441.263 92.4717V92.4774Z" fill="#4E180C"/>
<path d="M460.527 114.82L458.417 100.899C457.975 97.9832 456.04 95.5241 453.323 94.4173L449.772 92.9738L449.392 92.8198L448.944 92.7113L446.306 92.0837C443.475 91.4105 440.503 92.272 438.461 94.3545L429.986 103.01C427.388 105.663 426.435 109.537 427.507 113.103L429.714 120.428L428.761 123.384C420.104 124.428 413.331 131.885 413.331 140.86V174.305C413.331 181.055 418.822 186.572 425.527 186.572H441.74C448.45 186.572 453.936 181.049 453.936 174.305V141.299C453.936 136.792 452.268 132.661 449.522 129.489L450.283 127.132L457.907 121.301C459.892 119.784 460.89 117.296 460.516 114.814L460.527 114.82Z" fill="#E7693B"/>
<path d="M436.294 166.831H430.99C424.279 166.831 418.794 161.308 418.794 154.564V140.865C418.794 131.183 426.673 123.258 436.299 123.258C443.01 123.258 448.496 128.781 448.496 135.525V154.564C448.496 161.314 443.005 166.831 436.299 166.831H436.294Z" fill="#F2834C"/>
<path d="M430.196 120.583L449.868 126.995C450.112 127.075 450.254 127.326 450.203 127.577L449.517 130.83C449.454 131.121 449.159 131.292 448.876 131.2L428.857 124.736C428.596 124.651 428.449 124.371 428.534 124.109L429.566 120.908C429.651 120.645 429.929 120.503 430.19 120.588L430.196 120.583Z" fill="#3B3047"/>
<path d="M461.134 105.891L456.63 115.128C455.093 118.278 454.582 121.838 455.172 125.295L455.36 126.402C455.95 129.865 460.482 130.755 462.326 127.777L469.093 116.834C470.795 114.084 470.398 110.512 468.134 108.207L456.443 96.2944L461.134 105.891Z" fill="#4E180C"/>
<path d="M440.321 109.571C440.321 109.571 439.851 111.813 441.518 112.344C443.186 112.874 443.901 112.19 444.559 110.935" stroke="#4E180C" stroke-width="0.75" stroke-miterlimit="10" stroke-linecap="round"/>
<path d="M444.559 110.94C444.559 110.94 444.088 113.183 445.756 113.713C447.424 114.244 448.138 113.559 448.796 112.304" stroke="#4E180C" stroke-width="0.75" stroke-miterlimit="10" stroke-linecap="round"/>
<path d="M441.462 106.941L442.863 109.565C443.498 110.752 444.786 111.266 446.034 110.826L448.904 109.816C449.681 109.622 449.806 108.401 449.069 108.162L442.125 105.857C441.569 105.674 441.093 106.45 441.462 106.941Z" fill="#4E180C"/>
<path d="M451.077 109.12C451.077 109.12 452.438 108.63 453.351 109.754" stroke="#4E180C" stroke-miterlimit="10" stroke-linecap="round"/>
<path d="M440.741 104.094C440.577 104.607 440.032 104.887 439.522 104.721C439.011 104.556 438.733 104.008 438.898 103.495C439.062 102.981 439.607 102.702 440.117 102.867C440.628 103.033 440.906 103.58 440.741 104.094Z" fill="#4E180C"/>
<path d="M438.268 104.761C438.268 104.761 439.629 104.271 440.543 105.395" stroke="#4E180C" stroke-miterlimit="10" stroke-linecap="round"/>
<path opacity="0.42" d="M442.948 115.887C443.765 116.184 444.582 116.092 445.041 115.71L445.172 115.756C444.911 116.486 443.838 116.766 442.766 116.372C441.694 115.978 441.036 115.071 441.297 114.341L441.445 114.392C441.558 114.985 442.131 115.585 442.948 115.887Z" fill="#B14545"/>
<path d="M446.272 104.339C445.438 104.082 444.627 104.219 444.19 104.63L444.054 104.59C444.275 103.843 445.336 103.512 446.425 103.848C447.514 104.185 448.218 105.058 447.996 105.8L447.849 105.754C447.707 105.166 447.1 104.596 446.266 104.345L446.272 104.339Z" fill="#B14545"/>
<path d="M437.519 85.4483L443.43 83.845C444.479 83.5598 445.603 83.8222 446.419 84.5411L451.253 88.7917C452.228 89.6475 452.291 91.1537 451.389 92.0894L450.453 93.0594L448.235 89.4193L451.4 94.6112C451.752 95.1932 451.44 95.952 450.782 96.1061C450.192 96.243 449.573 96.0661 449.148 95.6325L444.672 91.1024L449.057 96.8934C449.369 97.3099 449.04 97.8976 448.524 97.8405C446.561 97.6237 444.735 96.728 443.351 95.313L442.148 94.0863C442.148 94.0863 439.221 98.2057 433.684 97.7093C433.684 97.7093 426.877 90.8 437.525 85.4426L437.519 85.4483Z" fill="#FFC5A6"/>
<path d="M450.736 92.7797C450.787 92.6942 450.787 92.5858 450.725 92.5002L448.269 88.8144C448.189 88.6946 448.025 88.6604 447.906 88.7403C447.787 88.8201 447.753 88.9856 447.832 89.1054L450.288 92.7911C450.368 92.911 450.532 92.9452 450.651 92.8653C450.685 92.8425 450.714 92.814 450.731 92.7797H450.736Z" fill="#FF8E77"/>
<path d="M445.733 91.1138C445.79 91.0168 445.778 90.8913 445.699 90.8057C445.603 90.6973 445.438 90.6859 445.33 90.7886C445.33 90.7886 444.933 91.148 444.496 91.5588C444.389 91.6615 444.383 91.827 444.485 91.9296C444.582 92.0381 444.752 92.0438 444.854 91.9411C445.285 91.536 445.682 91.1822 445.682 91.1822C445.705 91.1651 445.722 91.1423 445.733 91.1195V91.1138Z" fill="#FF8E77"/>
<path d="M448.513 88.6205C448.569 88.5235 448.558 88.398 448.479 88.3124C448.382 88.204 448.218 88.1926 448.11 88.2953C448.11 88.2953 447.713 88.6547 447.276 89.0655C447.168 89.1625 447.163 89.3337 447.265 89.4364C447.361 89.5448 447.531 89.5505 447.633 89.4478C448.065 89.0427 448.462 88.6889 448.462 88.6889C448.484 88.6718 448.501 88.649 448.513 88.6262V88.6205Z" fill="#FF8E77"/>
<path d="M442.676 94.3145C442.732 94.2118 442.721 94.0806 442.63 93.995C442.335 93.704 442.074 93.2248 442.074 93.2191C442.006 93.0878 441.847 93.0422 441.717 93.1107C441.586 93.1791 441.541 93.3389 441.609 93.4701C441.62 93.4929 441.91 94.0292 442.261 94.3773C442.364 94.48 442.534 94.4743 442.63 94.3773C442.647 94.3602 442.659 94.343 442.67 94.3259L442.676 94.3145Z" fill="#FF8E77"/>
<path d="M442.505 100.693C442.227 100.807 441.881 100.733 441.547 100.682C441.212 100.625 440.872 100.573 440.577 100.545C440.282 100.516 439.936 100.494 439.595 100.488C439.255 100.471 438.903 100.476 438.654 100.311C438.41 100.157 438.342 99.769 438.688 99.3411C439.011 98.9189 439.799 98.5081 440.781 98.5994C441.762 98.7021 442.443 99.2612 442.676 99.7348C442.925 100.225 442.778 100.585 442.505 100.693Z" fill="#4E180C"/>
<path d="M453.958 105.549C453.675 105.446 453.465 105.166 453.244 104.904C453.028 104.636 452.807 104.373 452.603 104.156C452.398 103.94 452.155 103.694 451.905 103.46C451.661 103.221 451.394 102.993 451.315 102.702C451.236 102.422 451.434 102.091 451.979 101.994C452.501 101.891 453.357 102.103 454.032 102.827C454.702 103.552 454.849 104.425 454.713 104.938C454.577 105.469 454.231 105.646 453.958 105.543V105.549Z" fill="#4E180C"/>
<path d="M350.27 188.148L350.348 175.648L364.682 175.739L364.596 189.546L351.561 189.463C350.84 189.459 350.265 188.867 350.27 188.148Z" fill="#FFA06C"/>
<path d="M350.348 175.93L350.439 161.045L353.672 161.065C356.656 161.083 359.069 163.534 359.051 166.541L358.993 175.983L350.348 175.93Z" fill="#FFA06C"/>
<path d="M349.841 161.069L349.663 189.453L351.74 189.466L351.917 161.082L349.841 161.069Z" fill="#F7EEE6"/>
<path d="M358.692 175.001C358.618 175.269 358.896 175.498 359.14 175.372C360.173 174.864 362.056 173.74 360.922 172.725C359.781 171.698 359.004 173.86 358.686 175.001H358.692Z" stroke="#EAEAEA" stroke-width="0.75" stroke-linecap="round" stroke-linejoin="round"/>
<path d="M359.214 179.355C361.012 179.252 359.872 176.81 359.191 175.595C359.084 175.406 358.862 175.361 358.698 175.446C358.613 175.486 358.545 175.56 358.511 175.663C358.068 176.953 357.433 179.457 359.214 179.355Z" stroke="#EAEAEA" stroke-width="0.75" stroke-linecap="round" stroke-linejoin="round"/>
<path d="M358.584 175.298C358.584 175.298 356.298 175.036 355.368 176.747" stroke="#EAEAEA" stroke-width="0.75" stroke-linecap="round" stroke-linejoin="round"/>
<path d="M357.631 182.327C356.236 182.316 355.101 183.445 355.09 184.849C355.079 186.252 356.202 187.394 357.597 187.405C358.993 187.416 360.127 186.287 360.139 184.883C360.15 183.48 359.027 182.339 357.631 182.327Z" stroke="#EAEAEA" stroke-width="0.75" stroke-linecap="round" stroke-linejoin="round"/>
<path d="M497.263 154.074L474.89 156.801L433.968 134.544C428.823 131.742 422.436 132.849 418.516 137.214L406.41 168.098L364.569 171.972C363.582 172.063 362.839 172.913 362.873 173.912L363.457 189.373C363.491 190.218 364.206 190.874 365.051 190.823L420.49 187.376L472.525 189.567C472.599 189.59 472.667 189.613 472.741 189.63C481.743 192.083 491.715 188.295 496.622 179.628C496.622 179.628 504.042 168.406 497.269 154.062L497.263 154.074ZM426.077 166.711L428.278 159.791L438.268 166.842L426.883 166.723L426.077 166.711Z" fill="#3B3047"/>
<path d="M420.796 179.052L403.517 177.232C403.183 177.198 402.973 176.85 403.098 176.536L406.393 168.12L405.491 168.183L401.146 178.059L404.595 178.31L399.217 187.77L421.63 187.428V180.655L423.695 180.781L427.705 166.723L426.049 166.78L422.504 177.928C422.271 178.664 421.556 179.132 420.796 179.052Z" fill="#261F30"/>
<path d="M418.72 189.681L406.291 189.602L406.365 177.603L420.087 178.972L420.03 188.375C420.03 189.099 419.44 189.681 418.72 189.676V189.681Z" fill="#FFA06C"/>
<path d="M439.624 167.801L437.23 166.831L464.215 189.373L472.735 189.641C470.256 188.968 467.851 187.821 465.65 186.178L439.624 167.801Z" fill="#261F30"/>
<path d="M406.585 189.613L391.786 189.522L391.805 186.27C391.824 183.269 394.261 180.842 397.25 180.86L406.638 180.918L406.585 189.613Z" fill="#FFA06C"/>
<path d="M391.812 190.106L420.033 190.284L420.046 188.196L391.825 188.017L391.812 190.106Z" fill="#F7EEE6"/>
<path d="M405.667 181.215C405.934 181.289 406.161 181.009 406.036 180.764C405.531 179.725 404.414 177.831 403.404 178.972C402.383 180.119 404.533 180.901 405.667 181.22V181.215Z" stroke="#EAEAEA" stroke-width="0.75" stroke-linecap="round" stroke-linejoin="round"/>
<path d="M409.995 180.69C409.893 178.881 407.465 180.028 406.257 180.712C406.07 180.821 406.025 181.043 406.11 181.209C406.149 181.294 406.223 181.363 406.325 181.397C407.607 181.842 410.098 182.481 409.995 180.69Z" stroke="#EAEAEA" stroke-width="0.75" stroke-linecap="round" stroke-linejoin="round"/>
<path d="M405.962 181.323C405.962 181.323 405.701 183.622 407.403 184.558" stroke="#EAEAEA" stroke-width="0.75" stroke-linecap="round" stroke-linejoin="round"/>
<path d="M412.951 182.281C412.94 183.685 414.063 184.826 415.458 184.837C416.854 184.849 417.988 183.719 418 182.316C418.011 180.912 416.888 179.771 415.492 179.76C414.097 179.748 412.962 180.878 412.951 182.281Z" stroke="#EAEAEA" stroke-width="0.75" stroke-linecap="round" stroke-linejoin="round"/>
<path d="M454.934 145.042L495.732 136.261L495.079 128.684L454.934 145.042Z" fill="#213338"/>
<path d="M453.198 145.949L449.5 136.101C449.846 134.955 449.261 135.696 448.524 134.852L445.603 134.567C444.638 133.466 443.09 133.049 441.581 133.477L438.115 134.458C436.827 134.823 435.761 135.816 435.301 137.077L434.342 139.736C434.013 140.654 434.643 141.544 435.596 141.505C435.874 141.493 436.141 141.379 436.351 141.179L437.213 140.363L437.082 140.974C436.521 143.638 438.12 146.274 440.736 146.987C442.142 147.37 451.933 144.819 453.204 145.949H453.198Z" fill="#FFC5A6"/>
<path d="M431.16 133.528C431.047 132.838 430.695 132.25 430.213 131.817C430.19 131.782 430.173 131.742 430.145 131.708C428.086 129.015 424.251 128.513 421.573 130.584L419.151 132.456C416.474 134.527 415.974 138.384 418.034 141.077C418.187 141.276 418.38 141.419 418.595 141.522C419.236 142.326 420.263 142.777 421.346 142.594C422.816 142.355 423.831 141.048 423.786 139.593C424.205 139.724 424.654 139.77 425.113 139.696C426.526 139.462 427.53 138.247 427.564 136.855C427.944 136.952 428.346 136.974 428.755 136.906C430.349 136.643 431.432 135.132 431.171 133.523L431.16 133.528Z" fill="#D85932"/>
<path d="M420.24 139.154L422.368 141.938" stroke="#4E180C" stroke-width="2" stroke-miterlimit="10" stroke-linecap="round"/>
<path d="M424.376 136.067L426.503 138.846" stroke="#4E180C" stroke-width="2" stroke-miterlimit="10" stroke-linecap="round"/>
<path d="M428.256 133.1L430.383 135.879" stroke="#4E180C" stroke-width="2" stroke-miterlimit="10" stroke-linecap="round"/>
<path d="M453.028 145.635L495.459 133.848C495.953 133.015 495.522 128.108 493.775 122.705L494.138 127.161C492.527 122.186 487.149 119.527 482.248 121.296L457.396 131.172L448.433 134.732L453.022 145.624L453.028 145.635Z" fill="#2B4047"/>
<path d="M479.44 52.3737C479.168 51.0329 478.43 49.909 477.432 49.133L477.528 48.8021C479.298 40.5349 475.316 35.7138 470.437 35.2916C468.424 32.7926 465.224 31.3548 461.815 31.7713L458.888 32.125C458.389 31.4347 457.861 30.6587 457.084 30.1053C455.842 28.5249 453.783 27.6862 451.684 28.1141C448.723 28.7246 446.811 31.6401 447.418 34.6183C447.418 34.6183 447.418 34.624 447.418 34.6297C444.871 33.6027 441.626 33.3403 439.187 36.2558C436.294 39.7076 440.265 43.4561 441.706 44.6371C441.717 44.6999 441.723 44.7569 441.734 44.8197C441.74 44.8539 441.751 44.8824 441.762 44.911C440.316 46.1719 439.561 48.1631 439.975 50.1885C440.548 53.007 443.169 54.8727 445.954 54.5532C447.526 55.2607 448.967 55.506 448.967 55.506L463.823 55.3919C463.823 55.3919 463.823 55.4204 463.829 55.4319C464.532 58.8894 467.896 61.1202 471.334 60.407C472.44 60.1788 473.416 59.671 474.21 58.9807C474.527 58.9749 474.851 58.9464 475.174 58.8837C478.135 58.2732 480.047 55.3577 479.44 52.3794V52.3737Z" fill="#441B14"/>
<path d="M477.925 57.2462L477.869 56.6129C477.579 53.2239 473.353 51.6206 471.061 54.2394C470.228 55.1922 469.751 56.3847 469.615 57.6399C469.507 58.6669 469.592 59.3344 468.668 58.2561C468.463 58.0164 468.458 57.3774 468.407 57.0807C468.259 56.2478 468.146 55.409 468.004 54.5761C467.698 52.7674 467.641 50.8047 466.875 49.1159C466.03 47.2559 464.209 45.9323 462.246 45.6242C460.187 45.299 457.867 45.9893 455.927 46.5941C455.898 46.6055 455.881 46.6055 455.859 46.6112C454.934 46.925 453.862 47.1019 452.762 47.1989C452.075 48.7964 450.657 50.0402 448.836 50.4168C448.116 50.5651 447.401 50.5594 446.72 50.4339L447.095 54.8385L448.116 66.7515C448.575 72.1146 452.83 76.2454 457.997 76.7133L459.279 88.341C459.688 92.0381 463.869 93.9609 466.915 91.8498L471.986 88.341C475.475 85.9276 477.177 81.6371 476.28 77.4721C474.993 71.4642 473.138 63.8417 473.138 63.8417L472.962 61.7649L474.295 61.6565C476.496 61.474 478.124 59.4999 477.931 57.2462H477.925Z" fill="#FFC5A6"/>
<path opacity="0.46" d="M473.206 64.6975L472.956 61.7649L471.419 61.8904L471.651 64.6005C472.122 70.112 468.055 74.9502 462.564 75.3952L458.894 75.6976C453.403 76.1484 448.569 72.0404 448.099 66.5289L447.429 58.7125L448.116 66.7572C448.575 72.1374 452.852 76.2625 458.037 76.7132H457.997C457.997 76.7132 458.258 79.3662 461.747 78.7158C465.236 78.0597 467.675 77.221 467.403 75.2754H467.374C471.158 73.3299 473.597 69.239 473.211 64.7089L473.206 64.6975Z" fill="#FF755F"/>
<path d="M474.482 55.5003L473.608 57.9251L475.1 58.4786" stroke="#FF755F" stroke-miterlimit="10" stroke-linecap="round"/>
<path d="M457.997 57.8566C457.612 57.8909 457.322 58.2389 457.356 58.6326C457.39 59.032 457.731 59.3286 458.122 59.2944C458.508 59.2602 458.797 58.9121 458.763 58.5185C458.729 58.1191 458.389 57.8224 457.997 57.8566Z" fill="#441B14"/>
<path d="M450.283 58.9235C449.897 58.9578 449.608 59.3058 449.642 59.6995C449.676 60.0989 450.016 60.3955 450.407 60.3613C450.793 60.3271 451.082 59.979 451.048 59.5854C451.014 59.186 450.674 58.8893 450.283 58.9235Z" fill="#441B14"/>
<path d="M453.646 57.0807L452.801 61.6279C452.608 62.6549 453.777 63.3567 455.218 63.0429C455.615 62.9573 456.063 62.8204 456.568 62.615" stroke="#FF755F" stroke-miterlimit="10" stroke-linecap="round"/>
<path d="M461.225 69.7012C461.225 69.7012 459.977 69.2048 459.138 70.2318" stroke="#FF755F" stroke-miterlimit="10" stroke-linecap="round"/>
<path d="M461.713 53.8457C461.304 53.9541 460.817 53.8286 460.334 53.7373C459.852 53.6346 459.364 53.5376 458.939 53.4749C458.514 53.4064 458.02 53.3493 457.527 53.3037C457.039 53.2466 456.534 53.2181 456.176 52.9899C455.83 52.7731 455.745 52.2995 456.262 51.8089C456.744 51.3296 457.89 50.9017 459.302 51.1185C460.709 51.341 461.673 52.0941 461.991 52.6989C462.326 53.3208 462.104 53.7487 461.707 53.8514L461.713 53.8457Z" fill="#441B14"/>
<path d="M448.15 54.6159C448.467 54.6445 448.808 54.4847 449.148 54.3535C449.488 54.2108 449.834 54.0796 450.135 53.9712C450.441 53.8685 450.793 53.7601 451.15 53.6574C451.502 53.549 451.871 53.4634 452.098 53.2466C452.319 53.0412 452.319 52.6818 451.877 52.3908C451.457 52.0998 450.555 51.9401 449.545 52.2881C448.541 52.6361 447.934 53.3208 447.787 53.8058C447.622 54.3078 447.849 54.5931 448.15 54.6159Z" fill="#441B14"/>
<path d="M451.241 60.5097C451.241 60.5097 450.328 59.7851 449.244 60.8805" stroke="#FF755F" stroke-miterlimit="10" stroke-linecap="round"/>
<path d="M459.223 59.38C459.223 59.38 458.309 58.6554 457.226 59.7509" stroke="#FF755F" stroke-miterlimit="10" stroke-linecap="round"/>
<path d="M460.805 62.0616C460.805 62.0616 458.718 63.5849 456.471 64.378C454.225 65.171 456.585 68.3832 460.039 67.3448C463.494 66.3121 462.621 61.2913 460.8 62.0616H460.805Z" fill="white"/>
</g>
<ellipse cx="136.304" cy="199.96" rx="171.5" ry="86.5" transform="rotate(-11.5018 136.304 199.96)" fill="white"/>
<path d="M34.225 194V176.25H47.625V194H45.875V177.8H35.975V194H34.225ZM51.6967 194V181H53.3967V191.7L61.3217 180.975H62.8467V194H61.1467V183.475L53.3467 194H51.6967ZM69.8154 194V182.5H65.1654V180.975H76.1654V182.5H71.5154V194H69.8154ZM84.0295 194.25C83.0962 194.25 82.2295 194.075 81.4295 193.725C80.6462 193.358 79.9628 192.867 79.3795 192.25C78.8128 191.617 78.3712 190.9 78.0545 190.1C77.7378 189.283 77.5795 188.425 77.5795 187.525C77.5795 186.592 77.7378 185.725 78.0545 184.925C78.3712 184.108 78.8212 183.392 79.4045 182.775C79.9878 182.142 80.6712 181.65 81.4545 181.3C82.2545 180.933 83.1212 180.75 84.0545 180.75C84.9878 180.75 85.8462 180.933 86.6295 181.3C87.4128 181.65 88.0962 182.142 88.6795 182.775C89.2628 183.392 89.7128 184.108 90.0295 184.925C90.3462 185.725 90.5045 186.592 90.5045 187.525C90.5045 188.425 90.3462 189.283 90.0295 190.1C89.7128 190.9 89.2628 191.617 88.6795 192.25C88.1128 192.867 87.4295 193.358 86.6295 193.725C85.8462 194.075 84.9795 194.25 84.0295 194.25ZM79.3045 187.55C79.3045 188.517 79.5128 189.4 79.9295 190.2C80.3628 190.983 80.9378 191.608 81.6545 192.075C82.3712 192.525 83.1628 192.75 84.0295 192.75C84.8962 192.75 85.6878 192.517 86.4045 192.05C87.1212 191.583 87.6962 190.95 88.1295 190.15C88.5628 189.333 88.7795 188.45 88.7795 187.5C88.7795 186.533 88.5628 185.65 88.1295 184.85C87.6962 184.05 87.1212 183.417 86.4045 182.95C85.6878 182.483 84.8962 182.25 84.0295 182.25C83.1628 182.25 82.3712 182.492 81.6545 182.975C80.9545 183.458 80.3878 184.1 79.9545 184.9C79.5212 185.683 79.3045 186.567 79.3045 187.55ZM93.3227 194V180.975H95.0727L100.248 189.95L105.448 180.975H107.123V194H105.498V183.525L100.798 191.675H99.6977L94.9477 183.525V194H93.3227ZM121.252 197.025V194H110.852V180.975H112.552V192.5H119.302V180.975H121.002V192.5H122.777V197.025H121.252ZM125.329 194V180.975H127.029V185.575H129.979C131.463 185.575 132.579 185.958 133.329 186.725C134.096 187.475 134.479 188.467 134.479 189.7C134.479 190.5 134.313 191.225 133.979 191.875C133.646 192.525 133.154 193.042 132.504 193.425C131.871 193.808 131.071 194 130.104 194H125.329ZM127.029 192.65H129.879C130.563 192.65 131.113 192.517 131.529 192.25C131.946 191.967 132.254 191.608 132.454 191.175C132.654 190.725 132.754 190.242 132.754 189.725C132.754 189.225 132.663 188.767 132.479 188.35C132.313 187.917 132.013 187.575 131.579 187.325C131.163 187.058 130.579 186.925 129.829 186.925H127.029V192.65ZM136.854 194V181H138.554V194H136.854ZM155.32 194.25C154.237 194.25 153.262 193.967 152.395 193.4C151.545 192.833 150.87 192.133 150.37 191.3V199.325H148.67V180.975H150.195V183.5C150.712 182.683 151.403 182.025 152.27 181.525C153.137 181.008 154.062 180.75 155.045 180.75C155.945 180.75 156.77 180.942 157.52 181.325C158.27 181.692 158.92 182.192 159.47 182.825C160.02 183.458 160.445 184.183 160.745 185C161.062 185.8 161.22 186.633 161.22 187.5C161.22 188.717 160.97 189.842 160.47 190.875C159.987 191.892 159.303 192.708 158.42 193.325C157.537 193.942 156.503 194.25 155.32 194.25ZM154.845 192.75C155.562 192.75 156.203 192.608 156.77 192.325C157.337 192.025 157.82 191.625 158.22 191.125C158.637 190.625 158.953 190.067 159.17 189.45C159.387 188.817 159.495 188.167 159.495 187.5C159.495 186.8 159.37 186.133 159.12 185.5C158.887 184.867 158.545 184.308 158.095 183.825C157.645 183.342 157.128 182.958 156.545 182.675C155.962 182.392 155.328 182.25 154.645 182.25C154.212 182.25 153.762 182.333 153.295 182.5C152.828 182.667 152.378 182.908 151.945 183.225C151.528 183.525 151.178 183.867 150.895 184.25C150.612 184.633 150.437 185.042 150.37 185.475V189.475C150.637 190.092 150.995 190.65 151.445 191.15C151.895 191.633 152.412 192.025 152.995 192.325C153.595 192.608 154.212 192.75 154.845 192.75ZM163.125 194L167 188.675C166.116 188.542 165.4 188.158 164.85 187.525C164.316 186.875 164.05 185.992 164.05 184.875C164.05 184.125 164.225 183.458 164.575 182.875C164.925 182.292 165.416 181.825 166.05 181.475C166.7 181.125 167.458 180.95 168.325 180.95H173.3V194H171.6V188.95H168.7L165.025 194H163.125ZM168.3 187.65H171.6V182.3H168.6C167.733 182.3 167.041 182.55 166.525 183.05C166.008 183.533 165.75 184.15 165.75 184.9C165.75 185.667 165.958 186.317 166.375 186.85C166.808 187.383 167.45 187.65 168.3 187.65ZM175.589 197.025V192.475H175.814C176.197 192.475 176.547 192.358 176.864 192.125C177.181 191.892 177.464 191.483 177.714 190.9C177.964 190.317 178.164 189.517 178.314 188.5C178.464 187.467 178.564 186.167 178.614 184.6L178.739 180.975H187.214V192.475H188.964V197.025H187.439V194H177.089V197.025H175.589ZM178.389 192.475H185.514V182.5H180.264L180.189 184.75C180.139 186.3 180.031 187.6 179.864 188.65C179.714 189.683 179.514 190.508 179.264 191.125C179.031 191.725 178.739 192.175 178.389 192.475ZM197.091 194.25C196.158 194.25 195.291 194.075 194.491 193.725C193.708 193.358 193.024 192.867 192.441 192.25C191.874 191.617 191.433 190.9 191.116 190.1C190.799 189.283 190.641 188.425 190.641 187.525C190.641 186.592 190.799 185.725 191.116 184.925C191.433 184.108 191.883 183.392 192.466 182.775C193.049 182.142 193.733 181.65 194.516 181.3C195.316 180.933 196.183 180.75 197.116 180.75C198.049 180.75 198.908 180.933 199.691 181.3C200.474 181.65 201.158 182.142 201.741 182.775C202.324 183.392 202.774 184.108 203.091 184.925C203.408 185.725 203.566 186.592 203.566 187.525C203.566 188.425 203.408 189.283 203.091 190.1C202.774 190.9 202.324 191.617 201.741 192.25C201.174 192.867 200.491 193.358 199.691 193.725C198.908 194.075 198.041 194.25 197.091 194.25ZM192.366 187.55C192.366 188.517 192.574 189.4 192.991 190.2C193.424 190.983 193.999 191.608 194.716 192.075C195.433 192.525 196.224 192.75 197.091 192.75C197.958 192.75 198.749 192.517 199.466 192.05C200.183 191.583 200.758 190.95 201.191 190.15C201.624 189.333 201.841 188.45 201.841 187.5C201.841 186.533 201.624 185.65 201.191 184.85C200.758 184.05 200.183 183.417 199.466 182.95C198.749 182.483 197.958 182.25 197.091 182.25C196.224 182.25 195.433 182.492 194.716 182.975C194.016 183.458 193.449 184.1 193.016 184.9C192.583 185.683 192.366 186.567 192.366 187.55ZM206.384 194V180.975H208.134L213.309 189.95L218.509 180.975H220.184V194H218.559V183.525L213.859 191.675H212.759L208.009 183.525V194H206.384Z" fill="black"/>
</g>
<rect x="9" y="5" width="531" height="216" rx="15" stroke="white" stroke-width="10"/>
</g>
<defs>
<filter id="filter0_d_4_18" x="0" y="0" width="549" height="234" filterUnits="userSpaceOnUse" color-interpolation-filters="sRGB">
<feFlood flood-opacity="0" result="BackgroundImageFix"/>
<feColorMatrix in="SourceAlpha" type="matrix" values="0 0 0 0 0 0 0 0 0 0 0 0 0 0 0 0 0 0 127 0" result="hardAlpha"/>
<feOffset dy="4"/>
<feGaussianBlur stdDeviation="2"/>
<feComposite in2="hardAlpha" operator="out"/>
<feColorMatrix type="matrix" values="0 0 0 0 0 0 0 0 0 0 0 0 0 0 0 0 0 0 0.25 0"/>
<feBlend mode="normal" in2="BackgroundImageFix" result="effect1_dropShadow_4_18"/>
<feBlend mode="normal" in="SourceGraphic" in2="effect1_dropShadow_4_18" result="shape"/>
</filter>
<clipPath id="clip0_4_18">
<rect x="4" width="541" height="226" rx="20" fill="white"/>
</clipPath>
<clipPath id="clip1_4_18">
<rect width="165" height="170" fill="white" transform="translate(344 28)"/>
</clipPath>
</defs>
</svg>
